<?xml version="1.0" encoding="UTF-8" standalone="no"?>
<!-- Created with Inkscape (http://www.inkscape.org/) -->

<svg
   xmlns:dc="http://purl.org/dc/elements/1.1/"
   xmlns:cc="http://creativecommons.org/ns#"
   xmlns:rdf="http://www.w3.org/1999/02/22-rdf-syntax-ns#"
   xmlns:svg="http://www.w3.org/2000/svg"
   xmlns="http://www.w3.org/2000/svg"
   xmlns:sodipodi="http://sodipodi.sourceforge.net/DTD/sodipodi-0.dtd"
   xmlns:inkscape="http://www.inkscape.org/namespaces/inkscape"
   width="146.54701mm"
   height="38.26487mm"
   viewBox="0 0 146.54701 38.26487"
   version="1.1"
   id="svg4293"
   inkscape:version="0.92.0 r15299"
   sodipodi:docname="koc university.svg">
  <defs
     id="defs4287">
    <clipPath
       id="clipPath4313"
       clipPathUnits="userSpaceOnUse">
      <path
         inkscape:connector-curvature="0"
         id="path4311"
         d="M 0,148.891 H 595.275 V 841.89 H 0 Z" />
    </clipPath>
    <clipPath
       id="clipPath4329"
       clipPathUnits="userSpaceOnUse">
      <path
         inkscape:connector-curvature="0"
         id="path4327"
         d="M 386.716,37.614 H 558.779 V 153.071 H 386.716 Z" />
    </clipPath>
    <clipPath
       id="clipPath4955"
       clipPathUnits="userSpaceOnUse">
      <path
         inkscape:connector-curvature="0"
         id="path4953"
         d="M 0,595.275 H 841.89 V 0 H 0 Z" />
    </clipPath>
  </defs>
  <sodipodi:namedview
     id="base"
     pagecolor="#ffffff"
     bordercolor="#666666"
     borderopacity="1.0"
     inkscape:pageopacity="0.0"
     inkscape:pageshadow="2"
     inkscape:zoom="1.6306159"
     inkscape:cx="275.04947"
     inkscape:cy="70.421802"
     inkscape:document-units="mm"
     inkscape:current-layer="layer1"
     showgrid="false"
     fit-margin-top="0"
     fit-margin-left="0"
     fit-margin-right="0"
     fit-margin-bottom="0"
     inkscape:window-width="1280"
     inkscape:window-height="744"
     inkscape:window-x="-4"
     inkscape:window-y="-4"
     inkscape:window-maximized="1" />
  <metadata
     id="metadata4290">
    <rdf:RDF>
      <cc:Work
         rdf:about="">
        <dc:format>image/svg+xml</dc:format>
        <dc:type
           rdf:resource="http://purl.org/dc/dcmitype/StillImage" />
        <dc:title></dc:title>
      </cc:Work>
    </rdf:RDF>
  </metadata>
  <g
     inkscape:label="Layer 1"
     inkscape:groupmode="layer"
     id="layer1"
     transform="translate(-506.24757,-480.18257)">
    <g
       id="g5161"
       transform="translate(0.50000286,-0.50000124)">
      <path
         d="m 519.16848,496.7605 c 0,0 0.35877,-0.36689 1.05445,-0.80222 l 0.59408,1.69016 c -0.27481,0.0808 -0.55527,0.19121 -0.81809,0.34255 z m 1.59561,-1.11231 c 0.38241,-0.20143 0.8121,-0.40287 1.32821,-0.57432 v 2.36573 c -0.18662,0.007 -0.41381,0.0286 -0.69003,0.0748 z m 2.03659,-0.77188 c 0.55104,-0.14005 1.14617,-0.24341 1.81822,-0.28469 l -0.97508,2.98874 c -0.26494,-0.0691 -0.53411,-0.11466 -0.84314,-0.13512 z m 2.49872,-0.29457 c 0.6978,0.025 1.4097,0.14112 2.08915,0.33197 l -2.4331,3.29459 c -0.21661,-0.16334 -0.45861,-0.30656 -0.72637,-0.42404 z m 2.77143,0.55492 c 0.69179,0.26 1.37266,0.61419 1.98296,1.0541 l -4.14937,3.01661 c -0.13617,-0.19862 -0.29034,-0.39229 -0.46602,-0.57291 z m 2.5654,1.51342 c 0.64241,0.55457 1.20967,1.21955 1.67075,1.99461 l -5.6963,2.01647 c -0.0917,-0.27552 -0.21026,-0.5722 -0.36195,-0.87136 z m 1.98614,2.57563 c 0.3623,0.73519 0.63358,1.55575 0.79198,2.46239 h -6.54826 c -0.0236,-0.13476 -0.0557,-0.30127 -0.10089,-0.48824 z m 0.89358,3.19934 c 0.0388,0.3743 0.0586,0.762 0.0586,1.16311 0,0 0.0261,0.57538 -0.0744,1.4725 l -6.63575,-2.07222 c 0.0427,-0.31115 0.0526,-0.56938 0.0536,-0.73625 z m -0.14076,3.4918 c -0.1464,0.82373 -0.39687,1.79599 -0.82338,2.79858 l -6.07095,-4.32505 c 0.12806,-0.29316 0.21872,-0.58632 0.28293,-0.86184 z m -1.17087,3.54224 c -0.45825,0.89323 -1.06609,1.78752 -1.87748,2.60173 l -4.79672,-6.32283 c 0.30092,-0.27164 0.53693,-0.57785 0.72073,-0.895 z m -2.44404,3.12843 c -0.74436,0.64065 -1.63407,1.21356 -2.69628,1.67358 l -2.85327,-7.75758 c 0.28611,-0.097 0.54116,-0.21802 0.77047,-0.35631 z m -3.42194,1.96074 c -0.98708,0.35348 -2.10644,0.61525 -3.37962,0.75459 l -0.16686,-8.53793 c 0.26529,-0.0141 0.51435,-0.0441 0.74683,-0.0861 z m -4.14091,0.82197 c -0.45544,0.0303 -0.92922,0.0476 -1.4224,0.0476 0,0 -0.77399,-0.0462 -1.96427,-0.30657 l 2.44052,-8.43174 c 0.28787,0.0494 0.59231,0.0804 0.91757,0.091 z m -4.03719,-0.41486 c -1.07138,-0.27482 -2.37419,-0.71085 -3.7218,-1.397 l 5.38338,-7.32861 c 0.25153,0.12206 0.52564,0.22754 0.82198,0.31256 z m -4.33282,-1.72544 c -1.07173,-0.6036 -2.15123,-1.37195 -3.14783,-2.35021 l 7.81226,-5.61622 c 0.2279,0.23777 0.4886,0.45826 0.78352,0.65511 z m -3.69499,-2.91888 c -0.85619,-0.94192 -1.6316,-2.0574 -2.26025,-3.37573 l 9.57192,-3.25861 c 0.15734,0.35242 0.35243,0.70767 0.59761,1.04598 z m -2.57422,-4.08058 c -0.48189,-1.16488 -0.85407,-2.4765 -1.07562,-3.95358 h 10.50784 c 0.0512,0.23283 0.11712,0.48577 0.20426,0.74894 z m -1.18145,-4.77556 c -0.0825,-0.76729 -0.12665,-1.57621 -0.12665,-2.42922 0,0 -0.0272,-0.69674 0.0963,-1.81399 l 10.49902,3.27554 c -0.0243,0.30198 -0.0251,0.48507 -0.0251,0.48507 0,0 0.002,0.26529 0.0589,0.68192 z m 0.0684,-4.99498 c 0.1905,-1.26012 0.56127,-2.87302 1.28199,-4.57658 l 9.46538,6.63292 c -0.13511,0.4699 -0.22084,0.92852 -0.27587,1.31939 z m 1.61713,-5.32165 c 0.65017,-1.35819 1.53211,-2.7499 2.72944,-4.04671 l 7.28451,9.55534 c -0.0395,0.0522 -0.079,0.10442 -0.11853,0.15733 -0.21943,0.32138 -0.39511,0.67628 -0.53834,1.03893 z m 3.27589,-4.61151 c 1.19204,-1.16875 2.66277,-2.2412 4.4764,-3.11609 l 4.064,11.56688 c -0.49424,0.32844 -0.94015,0.7045 -1.33456,1.12395 z m 5.13574,-3.41842 c 1.61361,-0.70202 3.45828,-1.25306 5.61834,-1.58997 v 12.42484 c -0.60713,0.17991 -1.15146,0.41769 -1.67111,0.70485 z m 6.32672,-1.68627 c 0.64841,-0.0868 1.30669,-0.15311 2.00731,-0.19897 0,0 1.63018,-0.16933 4.1095,0.18415 l -3.95675,12.1345 c -0.77047,0.004 -1.47955,0.0822 -2.16006,0.2293 z m 6.86223,0.10371 c 1.76354,0.30904 3.90031,0.8957 6.12281,1.93993 l -7.70819,10.50501 c -0.7239,-0.21766 -1.54376,-0.36618 -2.43593,-0.41204 z m 6.9342,2.34174 c 1.7399,0.90558 3.55741,2.12161 5.28991,3.72075 l -10.89413,7.91951 c -0.62266,-0.50518 -1.35679,-0.96873 -2.2098,-1.30775 z m 5.8921,4.29578 c 1.52823,1.78011 3.02754,3.90525 3.65266,5.4229 l -12.85311,4.70958 c -0.42686,-0.77047 -0.99342,-1.5748 -1.74237,-2.29764 z m 3.90313,6.29778 c 0.87524,1.6249 1.39206,5.01756 1.5173,7.22701 h -13.39956 c 0,0 -0.18239,-1.26048 -0.91264,-2.79047 z"
         style="fill:#c4122e;fill-opacity:1;fill-rule:evenodd;stroke:none;stroke-width:0.35277778"
         id="path4959"
         inkscape:connector-curvature="0" />
      <path
         d="m 568.97318,499.89571 h -1.0033 l -4.25838,-4.00826 4.04918,-3.72286 h 0.97332 v -1.81364 h -4.68666 v 1.81364 h 1.02059 l -3.5239,3.32528 v -3.32528 h 1.22732 v -1.81364 h -4.63833 v 1.81364 h 1.24425 v 7.73112 h -1.24425 v 1.81328 h 4.63833 v -1.81328 h -1.22732 v -3.51578 l 3.69782,3.51578 h -1.11478 v 1.81328 h 4.84611 z"
         style="fill:#231f20;fill-opacity:1;fill-rule:evenodd;stroke:none;stroke-width:0.35277778"
         id="path4963"
         inkscape:connector-curvature="0" />
      <path
         d="m 574.42438,499.78409 c -2.10432,0 -3.73027,-1.71803 -3.73027,-3.81741 0,-2.08386 1.69086,-3.73803 3.76273,-3.73803 2.03976,0 3.71439,1.68557 3.71439,3.72251 0,2.09903 -1.62595,3.83293 -3.74685,3.83293 m 0,2.16323 c 3.33199,0 5.97782,-2.68746 5.97782,-6.01239 0,-3.22968 -2.69346,-5.87057 -5.92949,-5.87057 -3.31611,0 -6.00957,2.62572 -6.00957,5.96653 0,3.27624 2.67794,5.91643 5.96124,5.91643"
         style="fill:#231f20;fill-opacity:1;fill-rule:evenodd;stroke:none;stroke-width:0.35277778"
         id="path4967"
         inkscape:connector-curvature="0" />
      <path
         d="m 592.51076,497.97109 h -2.34386 c -0.70096,1.09784 -1.89618,1.71803 -3.20392,1.71803 -2.05599,0 -3.69747,-1.7018 -3.69747,-3.73804 0,-2.13218 1.57763,-3.75461 3.72957,-3.75461 1.22767,0 2.50296,0.65229 3.14078,1.73426 h 2.07222 v -3.62726 h -1.78576 v 1.14546 c -0.92428,-0.95461 -2.19957,-1.39982 -3.52214,-1.39982 -3.23673,0 -5.81871,2.70475 -5.81871,5.8861 0,1.59032 0.60501,3.11714 1.72155,4.24709 0.83397,0.83291 1.95192,1.4164 3.12032,1.64324 v 1.92969 h 2.04646 v -1.91452 c 2.05882,-0.37218 3.89361,-1.86443 4.54096,-3.86962"
         style="fill:#231f20;fill-opacity:1;fill-rule:nonzero;stroke:none;stroke-width:0.35277778"
         id="path4971"
         inkscape:connector-curvature="0" />
      <path
         d="m 568.65798,506.89044 v 1.80975 h -1.22237 v 5.61975 c 0,0.59267 -0.066,1.12712 -0.19827,1.60302 -0.13229,0.4766 -0.40992,0.93698 -0.83326,1.38183 -0.40216,0.42298 -0.85972,0.71967 -1.37301,0.88865 -0.514,0.16933 -1.05551,0.254 -1.62771,0.254 -0.55034,0 -1.07386,-0.0741 -1.57163,-0.22225 -0.49742,-0.14817 -0.94721,-0.42298 -1.34902,-0.8255 -0.45544,-0.45473 -0.75706,-0.93909 -0.90523,-1.45239 -0.14817,-0.51329 -0.2219,-1.07703 -0.2219,-1.69086 v -5.55625 h -1.22237 v -1.80975 h 4.41325 v 1.80975 h -1.03223 v 5.334 c 0,0.27517 0.0159,0.54751 0.0476,0.81739 0.0324,0.27022 0.12735,0.52669 0.28575,0.77011 0.17991,0.26458 0.40745,0.4632 0.68297,0.59549 0.27482,0.13229 0.56551,0.19826 0.87278,0.19826 0.2861,0 0.55562,-0.0554 0.80962,-0.16686 0.25435,-0.11113 0.47061,-0.28258 0.65123,-0.51577 0.19015,-0.24341 0.30656,-0.51329 0.34925,-0.80927 0.042,-0.29633 0.0635,-0.59266 0.0635,-0.88935 v -5.334 h -1.03223 v -1.80975 z"
         style="fill:#231f20;fill-opacity:1;fill-rule:nonzero;stroke:none;stroke-width:0.35277778"
         id="path4975"
         inkscape:connector-curvature="0" />
      <path
         d="m 579.96133,518.22516 h -2.01612 l -5.33436,-7.46125 v 5.6515 h 1.23825 v 1.80975 h -4.61927 v -1.80975 h 1.22238 v -7.71525 h -1.22238 v -1.80975 h 3.175 l 5.39715,7.58825 v -5.7785 h -1.23825 v -1.80975 h 4.61997 v 1.80975 h -1.22237 z"
         style="fill:#231f20;fill-opacity:1;fill-rule:nonzero;stroke:none;stroke-width:0.35277778"
         id="path4979"
         inkscape:connector-curvature="0" />
      <path
         d="m 585.32673,516.41544 h 1.22237 v 1.80975 h -4.61927 v -1.80975 h 1.23825 v -7.71525 h -1.23825 v -1.80975 h 4.61927 v 1.80975 h -1.22237 z"
         style="fill:#231f20;fill-opacity:1;fill-rule:nonzero;stroke:none;stroke-width:0.35277778"
         id="path4983"
         inkscape:connector-curvature="0" />
      <path
         d="m 593.93119,518.22516 h -2.36537 l -3.25509,-9.525 h -1.22202 v -1.80975 h 4.58788 v 1.80975 h -1.0795 l 2.23873,6.5405 2.39677,-6.5405 h -1.09538 v -1.80975 h 4.46088 v 1.80975 h -1.20615 z"
         style="fill:#231f20;fill-opacity:1;fill-rule:nonzero;stroke:none;stroke-width:0.35277778"
         id="path4987"
         inkscape:connector-curvature="0" />
      <path
         d="m 599.07437,516.41544 h 1.2379 v -7.71525 h -1.2379 v -1.80975 h 8.39787 v 3.41313 h -2.15935 v -1.47673 h -2.84127 v 2.8261 h 3.30165 v 1.6831 h -3.30165 v 2.99967 h 2.84127 v -1.53987 h 2.15935 v 3.42935 h -8.39787 z"
         style="fill:#231f20;fill-opacity:1;fill-rule:nonzero;stroke:none;stroke-width:0.35277778"
         id="path4991"
         inkscape:connector-curvature="0" />
      <path
         d="m 612.83754,512.92315 c 0.33867,0 0.6671,-0.024 0.98425,-0.0716 0.3175,-0.0476 0.61912,-0.1771 0.90487,-0.38912 0.254,-0.20073 0.44697,-0.4445 0.57962,-0.72989 0.13229,-0.28611 0.19861,-0.58773 0.19861,-0.90523 0,-0.30692 -0.0635,-0.6029 -0.19085,-0.889 -0.127,-0.28575 -0.31221,-0.52352 -0.55563,-0.71438 -0.24341,-0.20073 -0.49459,-0.3175 -0.75388,-0.34925 -0.25965,-0.0317 -0.54257,-0.0476 -0.84949,-0.0476 h -1.49225 v 4.0961 z m -3.3334,-4.2231 h -1.22237 v -1.80975 h 5.06377 c 0.56056,0 1.08514,0.0504 1.57162,0.15063 0.48684,0.1009 0.95286,0.34185 1.397,0.72285 0.4445,0.38064 0.78035,0.82832 1.00824,1.34126 0.22719,0.51364 0.34114,1.06115 0.34114,1.64288 0,0.41275 -0.0663,0.81527 -0.19861,1.2065 -0.1323,0.39194 -0.31997,0.74613 -0.56339,1.06398 -0.24342,0.3175 -0.53728,0.57926 -0.88089,0.78528 -0.34431,0.20673 -0.73307,0.32597 -1.16699,0.35772 l 1.76248,2.2539 h 1.28552 v 1.80975 h -2.65112 l -3.58775,-5.09588 v 3.28613 h 0.96838 v 1.80975 h -4.3494 v -1.80975 h 1.22237 z"
         style="fill:#231f20;fill-opacity:1;fill-rule:nonzero;stroke:none;stroke-width:0.35277778"
         id="path4995"
         inkscape:connector-curvature="0" />
      <path
         d="m 620.4574,514.85962 c 0,0.23283 0.0399,0.45508 0.11924,0.66675 0.0794,0.21202 0.19015,0.39687 0.33337,0.55562 0.14288,0.15875 0.31786,0.28364 0.52388,0.37289 0.20673,0.0903 0.44168,0.13511 0.70626,0.13511 0.4766,0 0.87348,-0.13723 1.19062,-0.41275 0.3175,-0.27516 0.47661,-0.65581 0.47661,-1.143 0,-0.28574 -0.0614,-0.52105 -0.18239,-0.70626 -0.12206,-0.1852 -0.27587,-0.33902 -0.46037,-0.46072 -0.18556,-0.12136 -0.39194,-0.21943 -0.61948,-0.29387 -0.22825,-0.0734 -0.45262,-0.14252 -0.67451,-0.20567 -0.41275,-0.11677 -0.7994,-0.24094 -1.15888,-0.37359 -0.36054,-0.13194 -0.71472,-0.33055 -1.06397,-0.59549 -0.8255,-0.61313 -1.23825,-1.43898 -1.23825,-2.47614 0,-0.46567 0.0924,-0.89924 0.27763,-1.30175 0.18556,-0.40217 0.43709,-0.74895 0.75459,-1.03964 0.31715,-0.29104 0.68228,-0.51894 1.09502,-0.68263 0.41275,-0.16404 0.84667,-0.24623 1.30211,-0.24623 0.39123,0 0.76411,0.0691 1.11901,0.20602 0.35419,0.13793 0.65299,0.36054 0.89711,0.6671 v -0.635 h 1.651 v 3.048 h -1.9371 c -0.0102,-0.42298 -0.15346,-0.77505 -0.42863,-1.05551 -0.27551,-0.28046 -0.62476,-0.42086 -1.04775,-0.42086 -0.42298,0 -0.78563,0.12453 -1.08726,0.37323 -0.30197,0.24871 -0.45261,0.59514 -0.45261,1.03964 0,0.27517 0.0557,0.50306 0.16651,0.68298 0.11183,0.17956 0.25718,0.32773 0.43674,0.44415 0.17992,0.11676 0.37853,0.20884 0.59549,0.27798 0.21696,0.0688 0.43674,0.13477 0.65863,0.19827 0.4445,0.11641 0.86749,0.2487 1.27,0.39687 0.40217,0.14817 0.78811,0.35983 1.15888,0.635 0.37077,0.29669 0.65123,0.64876 0.84137,1.05586 0.19086,0.40711 0.28575,0.84914 0.28575,1.32539 0,0.508 -0.0903,0.97896 -0.26987,1.41287 -0.17992,0.43392 -0.42863,0.80963 -0.74577,1.12713 -0.3175,0.3175 -0.69639,0.56656 -1.13524,0.74612 -0.43921,0.17992 -0.91863,0.26988 -1.43687,0.26988 -0.44414,0 -0.84948,-0.0769 -1.21461,-0.23001 -0.36442,-0.15346 -0.68474,-0.39935 -0.95991,-0.73837 v 0.74613 h -1.71485 v -3.3655 z"
         style="fill:#231f20;fill-opacity:1;fill-rule:nonzero;stroke:none;stroke-width:0.35277778"
         id="path4999"
         inkscape:connector-curvature="0" />
      <path
         d="m 630.09331,516.41544 h 1.22237 v 1.80975 h -4.61927 v -1.80975 h 1.23825 v -7.71525 h -1.23825 v -1.80975 h 4.61927 v 1.80975 h -1.22237 z"
         style="fill:#231f20;fill-opacity:1;fill-rule:nonzero;stroke:none;stroke-width:0.35277778"
         id="path5003"
         inkscape:connector-curvature="0" />
      <path
         d="m 637.60225,516.41544 h 1.23825 v 1.80975 h -4.63585 v -1.80975 h 1.23895 v -7.60448 h -1.66758 v 1.65136 h -1.71414 v -3.57188 h 8.9221 v 3.57188 h -1.71486 v -1.65136 h -1.66687 z"
         style="fill:#231f20;fill-opacity:1;fill-rule:nonzero;stroke:none;stroke-width:0.35277778"
         id="path5007"
         inkscape:connector-curvature="0" />
      <path
         d="m 647.6826,516.41544 h 1.23896 v 1.80975 h -4.61998 v -1.80975 h 1.22237 v -2.14312 l -3.00072,-5.57213 h -1.1423 v -1.80975 h 4.3815 v 1.80975 h -1.0481 l 1.905,3.7465 1.88877,-3.7465 h -1.07915 v -1.80975 h 4.36563 v 1.80975 h -1.12713 l -2.98485,5.57213 z"
         style="fill:#231f20;fill-opacity:1;fill-rule:nonzero;stroke:none;stroke-width:0.35277778"
         id="path5011"
         inkscape:connector-curvature="0" />
    </g>
  </g>
</svg>
